<svg width="1280" height="720" xmlns="http://www.w3.org/2000/svg" xmlns:xlink="http://www.w3.org/1999/xlink" overflow="hidden"><defs><filter id="fx0" x="-10%" y="-10%" width="120%" height="120%" filterUnits="userSpaceOnUse" primitiveUnits="userSpaceOnUse"><feComponentTransfer color-interpolation-filters="sRGB"><feFuncR type="discrete" tableValues="0.2 0.2"/><feFuncG type="discrete" tableValues="0.247059 0.247059"/><feFuncB type="discrete" tableValues="0.313726 0.313726"/><feFuncA type="linear" slope="0.258824" intercept="0"/></feComponentTransfer><feGaussianBlur stdDeviation="5.77778 5.77778"/></filter><clipPath id="clip1"><rect x="0" y="0" width="1280" height="720"/></clipPath><clipPath id="clip2"><rect x="-6.5" y="-6.5" width="685" height="405"/></clipPath><clipPath id="clip3"><rect x="0" y="0" width="654" height="374"/></clipPath><clipPath id="clip4"><rect x="835" y="84" width="74" height="85"/></clipPath><clipPath id="clip5"><rect x="835" y="84" width="74" height="85"/></clipPath><clipPath id="clip6"><rect x="835" y="84" width="74" height="85"/></clipPath></defs><g clip-path="url(#clip1)"><rect x="0" y="0" width="1280" height="720" fill="#FFFFFF"/><g clip-path="url(#clip2)" filter="url(#fx0)" transform="matrix(2 0 0 2 7 7)"><g clip-path="url(#clip3)"><rect x="18.1846" y="18.1846" width="640" height="360" fill="#FFFFFF"/></g></g><rect x="0" y="0" width="1280" height="720" fill="#FFFFFF"/><path d="M342.636 653.5 58.5001 653.5 58.5001 81.5001 435.5 81.5001" stroke="#BFBFBF" stroke-width="4.66667" stroke-miterlimit="8" fill="none" fill-rule="evenodd"/><path d="M284.136 572 0 572 0 0 377 0" stroke="#7F7F7F" stroke-width="4.66667" stroke-miterlimit="8" fill="none" fill-rule="evenodd" transform="matrix(-1 0 0 1 812.5 81.5001)"/><rect x="359" y="635" width="152" height="25" fill="#FFC000"/><text font-family="Century Gothic,Century Gothic_MSFontService,sans-serif" font-weight="400" font-size="43" transform="translate(850.724 229)">How does it <tspan font-weight="700" font-size="43" x="252.5" y="0">help ?</tspan><tspan fill="#D9D9D9" font-family="Montserrat,Montserrat_MSFontService,sans-serif" font-size="80" x="347.744" y="-144">7</tspan></text><g clip-path="url(#clip4)"><g clip-path="url(#clip5)"><g clip-path="url(#clip6)"><path d="M63.1852 62.4375 12.3333 62.4375 12.3333 11.5625 10.7917 11.5625 10.7917 63.9792 63.1852 63.9792 63.1852 62.4375Z" fill="#A5A5A5" transform="matrix(1 0 0 1.14865 835 84)"/><path d="M63.2083 11.5625 50.875 11.5625 50.875 57.8125 63.2083 57.8125ZM61.6667 56.2708 52.4167 56.2708 52.4167 13.1042 61.6667 13.1042Z" fill="#A5A5A5" transform="matrix(1 0 0 1.14865 835 84)"/><path d="M33.9167 57.8125 46.25 57.8125 46.25 28.5208 33.9167 28.5208ZM35.4583 30.0625 44.7083 30.0625 44.7083 56.2708 35.4583 56.2708Z" fill="#A5A5A5" transform="matrix(1 0 0 1.14865 835 84)"/><path d="M16.9583 57.8125 29.2917 57.8125 29.2917 42.3958 16.9583 42.3958ZM18.5 43.9375 27.75 43.9375 27.75 56.2708 18.5 56.2708Z" fill="#A5A5A5" transform="matrix(1 0 0 1.14865 835 84)"/><path d="M17.5033 36.7741 40.0725 14.2049C40.0755 14.2019 40.0805 14.202 40.0834 14.205 40.0848 14.2065 40.0856 14.2083 40.0856 14.2103L40.0856 21.5833 41.6273 21.5833 41.6273 11.5625 31.6273 11.5625 31.6273 13.1042 38.9749 13.1042C38.9791 13.1042 38.9825 13.1077 38.9825 13.112 38.9824 13.114 38.9817 13.1159 38.9803 13.1173L16.4134 35.6842Z" fill="#A5A5A5" transform="matrix(1 0 0 1.14865 835 84)"/></g></g></g><text fill="#FF0000" font-family="Avenir Next LT Pro,Avenir Next LT Pro_MSFontService,sans-serif" font-weight="300" font-size="27" transform="translate(847.1 375)">›<tspan fill="#000000" font-size="27" x="30" y="0">Reduction in anxiety.</tspan><tspan font-size="27" x="0" y="32">›</tspan><tspan fill="#000000" font-size="27" x="30" y="32">Improved moods.</tspan><tspan font-size="27" x="0" y="64">›</tspan><tspan fill="#000000" font-size="27" x="30" y="64">Clearer thinking.</tspan><tspan font-size="27" x="0" y="96">›</tspan><tspan fill="#000000" font-size="27" x="30" y="96">A greater sense of calm or </tspan><tspan fill="#000000" font-size="27" x="30" y="128">inner peace.</tspan><tspan font-size="27" x="0" y="160">›</tspan><tspan fill="#000000" font-size="27" x="30" y="160">Increased self</tspan><tspan fill="#000000" font-size="27" x="194.7" y="160">-</tspan><tspan fill="#000000" font-size="27" x="203.033" y="160">esteem.</tspan><tspan font-size="27" x="0" y="192">›</tspan><tspan fill="#000000" font-size="27" x="30" y="192">Reduced risk of depression.</tspan><tspan font-size="27" x="0" y="224">›</tspan><tspan fill="#000000" font-size="27" x="30" y="224">Improvements in </tspan><tspan fill="#000000" font-size="27" x="30" y="256">relationships.</tspan></text><rect x="671" y="150" width="99" height="143" fill="#DADBD8"/><rect x="666" y="150" width="99" height="143" fill="#F3F2F1"/><rect x="678" y="166" width="74" height="112" fill="#FFFFFF"/><path d="M752.751 277.754C752.751 277.754 752.751 277.569 752.751 277.262 752.751 276.892 752.751 276.338 752.751 275.662 752.751 274.246 752.751 272.215 752.689 269.569 752.689 264.215 752.689 256.4 752.627 246.554 752.627 226.923 752.565 199.046 752.503 166.308L752.751 166.492C730.009 166.554 704.781 166.554 678.249 166.554L678.249 166.554 678.497 166.308C678.497 208.338 678.497 247.108 678.497 277.754L678.249 277.569C700.929 277.631 719.57 277.631 732.495 277.692 738.957 277.692 744.052 277.754 747.47 277.754 749.21 277.754 750.515 277.754 751.384 277.754 752.316 277.754 752.751 277.754 752.751 277.754 752.751 277.754 752.316 277.815 751.447 277.815 750.577 277.815 749.272 277.815 747.594 277.815 744.114 277.815 739.081 277.877 732.619 277.877 719.632 277.938 700.991 277.938 678.249 278L678.062 278 678.062 277.754C678 247.108 678 208.338 678 166.308L678 166 678.249 166 678.249 166C704.781 166 730.009 166 752.751 166.062L753 166.062 753 166.308C753 199.108 752.938 227.046 752.876 246.738 752.876 256.523 752.876 264.338 752.814 269.631 752.814 272.277 752.814 274.308 752.814 275.723 752.814 276.4 752.814 276.892 752.814 277.262 752.814 277.631 752.751 277.754 752.751 277.754" fill="#DADBD8" fill-rule="evenodd"/><path d="M764.941 150.064C765 150.128 764.347 151.15 763.279 152.684 762.151 154.282 760.607 156.455 758.826 158.756 757.046 161.12 755.384 163.165 754.137 164.635 752.89 166.105 752.119 167 752.059 166.936 752 166.872 752.712 165.914 753.84 164.38 755.146 162.718 756.69 160.673 758.411 158.436 760.132 156.135 761.676 154.09 762.982 152.492 764.169 150.959 764.881 150 764.941 150.064" fill="#DADBD8" fill-rule="evenodd"/><path d="M753 278C756.714 283.762 761.048 289.157 766 294" fill="#FFFFFF" fill-rule="evenodd"/><path d="M765.938 293.939C765.877 294 765.014 293.27 763.659 291.932 762.365 290.593 760.578 288.707 758.791 286.517 757.005 284.327 755.526 282.198 754.54 280.677 753.493 279.095 753 278.061 753 278.061 753.123 278 753.739 278.913 754.848 280.433 755.957 281.954 757.436 284.023 759.223 286.213 761.009 288.403 762.673 290.289 763.967 291.688 765.199 293.027 766 293.878 765.938 293.939" fill="#DADBD8" fill-rule="evenodd"/><path d="M666 293C670.292 287.667 674.646 282.333 679 277L666 293Z" fill="#FFFFFF" fill-rule="evenodd"/><path d="M678.878 277.061C679 277.184 676.193 280.801 672.714 285.153 669.174 289.506 666.183 293 666.122 292.877 666 292.816 668.746 289.199 672.286 284.785 675.765 280.433 678.756 277 678.878 277.061Z" fill="#DADBD8" fill-rule="evenodd"/><path d="M666.12 150.127C666.24 150 668.94 153.506 672.18 157.841 675.42 162.239 678 165.809 677.88 165.936 677.76 166 675.06 162.558 671.82 158.223 668.52 153.825 666 150.191 666.12 150.127Z" fill="#DADBD8" fill-rule="evenodd"/><rect x="705" y="189" width="24" height="70" fill="#DADBD8"/><rect x="306" y="544" width="111" height="36" fill="#F3F2F1"/><path d="M301 534 301 544 421 544 421 534 358.573 534 301 534Z" fill="#DADBD8" fill-rule="evenodd"/><path d="M361.327 580 417.011 580 417.011 543.964 421 543.964 421 534 359 534 359 543.134 361.327 580Z" fill="#DADBD8" fill-rule="evenodd"/><rect x="322" y="549" width="22" height="6" fill="#DADBD8"/><rect x="319" y="562" width="29" height="11" fill="#FFFFFF"/><rect x="331" y="496" width="111" height="36" fill="#F3F2F1"/><path d="M326 486 326 496 446 496 446 486 383.573 486 326 486Z" fill="#DADBD8" fill-rule="evenodd"/><path d="M385.365 532 442.115 532 442.115 496.13 446 496.13 446 486 383 486 383 495.134 385.365 532Z" fill="#DADBD8" fill-rule="evenodd"/><rect x="346" y="502" width="23" height="6" fill="#DADBD8"/><rect x="343" y="514" width="29" height="12" fill="#FFFFFF"/><path d="M205 219.834 196.167 220 196 176 204.833 176 205 219.834Z" fill="#DADBD8" fill-rule="evenodd"/><path d="M142 200.83 119 201 119 176.17 141.833 176 142 200.83Z" fill="#E7E8E5" fill-rule="evenodd"/><path d="M165 199.836 142.331 200 142 176 164.835 176 165 199.836Z" fill="#F3F2F1" fill-rule="evenodd"/><path d="M119.307 182.8C134.395 183 149.605 182.867 164.693 182.6 165 182.6 165 182.067 164.693 182.067 149.544 182 134.395 182.067 119.307 182.4 119 182.4 119.061 182.8 119.307 182.8" fill="#DADBD8" fill-rule="evenodd"/><path d="M147 219.833 105.167 220 105 200.167 146.833 200 147 219.833Z" fill="#E7E8E5" fill-rule="evenodd"/><path d="M188 219.835 146.168 220 146 200.331 188 200 188 219.835Z" fill="#F3F2F1" fill-rule="evenodd"/><path d="M105.245 205.773C132.708 206 160.292 205.773 187.694 205.455 188 205.455 188 205.091 187.694 205.091 160.231 205 132.708 205 105.245 205.455 105 205.455 105 205.773 105.245 205.773" fill="#DADBD8" fill-rule="evenodd"/><rect x="89" y="220" width="162" height="7" fill="#DADBD8"/><rect x="116" y="224" width="6" height="24" fill="#DADBD8"/><rect x="214" y="224" width="6" height="24" fill="#DADBD8"/><path d="M214 220 205.327 220 205 160 213.673 160 214 220Z" fill="#E7E8E5" fill-rule="evenodd"/><path d="M227 219.834 214.157 220 214 171 226.843 171 227 219.834Z" fill="#F3F2F1" fill-rule="evenodd"/><path d="M213 180.5C213 180.224 216.134 180 220 180 223.866 180 227 180.224 227 180.5 227 180.776 223.866 181 220 181 216.134 181 213 180.776 213 180.5Z" fill="#DADBD8" fill-rule="evenodd"/><path d="M213 178.5C213 178.224 216.134 178 220 178 223.866 178 227 178.224 227 178.5 227 178.776 223.866 179 220 179 216.134 179 213 178.776 213 178.5Z" fill="#DADBD8" fill-rule="evenodd"/><path d="M213 212.5C213 212.224 216.134 212 220 212 223.866 212 227 212.224 227 212.5 227 212.776 223.866 213 220 213 216.134 213 213 212.776 213 212.5Z" fill="#DADBD8" fill-rule="evenodd"/><path d="M213 210.5C213 210.224 216.134 210 220 210 223.866 210 227 210.224 227 210.5 227 210.776 223.866 211 220 211 216.134 211 213 210.776 213 210.5Z" fill="#DADBD8" fill-rule="evenodd"/><path d="M220 195C220 188.925 220.224 184 220.5 184 220.776 184 221 188.925 221 195 221 201.075 220.776 206 220.5 206 220.224 206 220 201.075 220 195Z" fill="#DADBD8" fill-rule="evenodd"/><rect x="227" y="183" width="15" height="37" fill="#E7E8E5"/><path d="M206 169.5C206 168.119 207.119 167 208.5 167 209.881 167 211 168.119 211 169.5 211 170.881 209.881 172 208.5 172 207.119 172 206 170.881 206 169.5Z" fill="#DADBD8" fill-rule="evenodd"/><rect x="208" y="177" width="2" height="36" fill="#DADBD8"/><rect x="174" y="312" width="162" height="7" fill="#DADBD8"/><rect x="201" y="315" width="6" height="25" fill="#DADBD8"/><rect x="299" y="315" width="6" height="25" fill="#DADBD8"/><path d="M274.611 249.315C274.855 249 276.626 250.387 278.947 253.098 280.168 254.485 281.389 256.187 282.672 258.268 283.893 260.285 285.176 262.618 286.214 265.203 287.252 267.788 288.046 270.31 288.656 272.706 289.206 275.039 289.573 277.182 289.695 279.01 290 282.667 289.756 284.937 289.389 284.937 288.534 285 287.802 276.173 283.649 266.338 279.618 256.503 274 249.883 274.611 249.315" fill="#E7E8E5" fill-rule="evenodd"/><path d="M292.578 292C292.217 292 291.253 287.308 290.349 279.529 289.386 271.75 288.602 261.008 288.301 249.093 288 237.177 288.12 226.373 288.361 218.594 288.602 210.816 288.964 206 289.325 206 289.747 206 290.048 210.816 290.349 218.594 290.59 226.373 290.771 237.116 291.072 249.031 291.374 260.884 291.855 271.565 292.277 279.344 292.699 287.123 293 291.938 292.578 292" fill="#E7E8E5" fill-rule="evenodd"/><path d="M309.633 224.186C310 224.434 308.531 227.717 306.633 233.292 304.612 238.805 302.224 246.549 299.837 255.221 297.51 263.894 295.673 271.823 294.571 277.584 293.469 283.345 293.041 287 292.612 287 292.245 287 292 283.221 292.612 277.274 293.224 271.327 294.816 263.212 297.143 254.478 299.531 245.681 302.286 237.938 304.796 232.487 307.184 227.035 309.327 224 309.633 224.186" fill="#E7E8E5" fill-rule="evenodd"/><path d="M270 282 270 291.605C270 302.894 278.903 312 289.969 312 301.036 312 310 302.894 310 291.605L310 282 270 282Z" fill="#DADBD8" fill-rule="evenodd"/><path d="M270 290.5C270 290.224 279.178 290 290.5 290 301.822 290 311 290.224 311 290.5 311 290.776 301.822 291 290.5 291 279.178 291 270 290.776 270 290.5Z" fill="#FAFAF9" fill-rule="evenodd"/><path d="M270 292.5C270 292.224 279.178 292 290.5 292 301.822 292 311 292.224 311 292.5 311 292.776 301.822 293 290.5 293 279.178 293 270 292.776 270 292.5Z" fill="#FAFAF9" fill-rule="evenodd"/><path d="M195 289 195 279.182 238.834 279 239 288.818 195 289Z" fill="#DADBD8" fill-rule="evenodd"/><path d="M195.166 312 195 298.329 243.834 298 244 311.835 195.166 312Z" fill="#F3F2F1" fill-rule="evenodd"/><path d="M234 305C234 301.134 234.224 298 234.5 298 234.776 298 235 301.134 235 305 235 308.866 234.776 312 234.5 312 234.224 312 234 308.866 234 305Z" fill="#DADBD8" fill-rule="evenodd"/><path d="M237 305C237 301.134 237.224 298 237.5 298 237.776 298 238 301.134 238 305 238 308.866 237.776 312 237.5 312 237.224 312 237 308.866 237 305Z" fill="#DADBD8" fill-rule="evenodd"/><path d="M202 305C202 301.134 202.224 298 202.5 298 202.776 298 203 301.134 203 305 203 308.866 202.776 312 202.5 312 202.224 312 202 308.866 202 305Z" fill="#DADBD8" fill-rule="evenodd"/><path d="M204 305C204 301.134 204.224 298 204.5 298 204.776 298 205 301.134 205 305 205 308.866 204.776 312 204.5 312 204.224 312 204 308.866 204 305Z" fill="#DADBD8" fill-rule="evenodd"/><path d="M209 305.5C209 305.224 213.925 305 220 305 226.075 305 231 305.224 231 305.5 231 305.776 226.075 306 220 306 213.925 306 209 305.776 209 305.5Z" fill="#DADBD8" fill-rule="evenodd"/><path d="M202.168 297 202 288.327 263 288 263 296.673 202.168 297Z" fill="#E7E8E5" fill-rule="evenodd"/><path d="M251 293C251 291.343 252.343 290 254 290 255.657 290 257 291.343 257 293 257 294.657 255.657 296 254 296 252.343 296 251 294.657 251 293Z" fill="#DADBD8" fill-rule="evenodd"/><rect x="205" y="292" width="41" height="2" fill="#DADBD8"/><path d="M786 581.444C786 581.778 628.389 582 434.031 582 239.549 582 82 581.778 82 581.444 82 581.222 239.549 581 434.031 581 628.389 581 786 581.222 786 581.444" fill="#17282F" fill-rule="evenodd"/><rect x="587" y="440" width="66" height="6" fill="#17282F"/><rect x="580" y="484" width="66" height="6" fill="#17282F"/><rect x="599" y="393" width="66" height="7" fill="#17282F"/><rect x="607" y="349" width="66" height="7" fill="#17282F"/><rect x="565" y="527" width="67" height="7" fill="#17282F"/><path d="M608.754 311 549 582 560.078 582 620 311.333 608.754 311Z" fill="#17282F" fill-rule="evenodd"/><path d="M677.774 311 619 582 630.061 582 689 311.333 677.774 311Z" fill="#17282F" fill-rule="evenodd"/><path d="M615 307 676.88 582 687 582 625.783 307 615 307Z" fill="#33535F" fill-rule="evenodd"/><path d="M682 307 743.714 582 754 582 692.783 307 682 307Z" fill="#33535F" fill-rule="evenodd"/><path d="M605 306.05 605 312 700 312 700 305 605 306.05Z" fill="#33535F" fill-rule="evenodd"/><rect x="642" y="395" width="67" height="6" fill="#33535F"/><rect x="655" y="440" width="67" height="6" fill="#33535F"/><rect x="663" y="484" width="66" height="6" fill="#33535F"/><rect x="674" y="530" width="66" height="7" fill="#33535F"/><rect x="631" y="349" width="66" height="7" fill="#33535F"/><path d="M683.876 203.808 684 243.26 668.622 244 668.005 234.507C668.005 234.507 660.532 235.678 658.988 230.068 658 226.493 658.247 199 658.247 199L683.876 203.808Z" fill="#C0776A" fill-rule="evenodd"/><path d="M654.828 203.068C656.002 205.433 661.435 209.79 661.435 209.79L663.843 216.388C666.005 214.708 668.845 214.832 669.401 218.629 669.771 221.306 666.437 221.866 666.437 221.866 668.413 225.227 669.709 227.966 672.55 231.141 675.637 234.627 677.366 235 680.762 235L684.405 235C684.405 235 692 228.651 690.518 211.907 688.974 195.162 674.032 200.018 670.45 195.847 664.646 189 651 195.1 654.828 203.068" fill="#17282F" fill-rule="evenodd"/><path d="M664 194.065C664 194.194 662.812 194.258 661.25 195.226 659.688 196.129 657.75 198.065 657.188 200.903 656.625 203.677 657.562 206.323 658.625 207.806 659.688 209.29 660.75 209.935 660.688 210 660.688 210 660.438 209.935 660 209.613 659.5 209.29 658.938 208.774 658.375 208 657.188 206.516 656 203.806 656.625 200.774 657.25 197.742 659.375 195.742 661.062 194.839 661.938 194.387 662.688 194.194 663.188 194.129 663.688 194 664 194 664 194.065" fill="#33535F" fill-rule="evenodd"/><path d="M665.94 201.066C666 201.131 665.458 201.394 664.735 201.985 663.952 202.511 663.048 203.431 662.386 204.745 661.723 205.993 661.482 207.372 661.422 208.358 661.301 209.343 661.422 209.934 661.301 209.934 661.241 210 661.06 209.343 661 208.358 661 207.307 661.181 205.861 661.904 204.416 662.627 203.036 663.711 202.117 664.494 201.591 665.337 201.131 665.94 201 665.94 201.066" fill="#33535F" fill-rule="evenodd"/><path d="M586 290C586 286.686 588.686 284 592 284 595.314 284 598 286.686 598 290 598 293.314 595.314 296 592 296 588.686 296 586 293.314 586 290Z" fill="#F03D5F" fill-rule="evenodd"/><path d="M639.991 274 632.557 293.15 602.575 295.708 602.575 295.708 601.956 295.52C601.398 295.146 600.717 294.647 599.973 294.086 599.354 293.587 598.734 292.963 598.301 292.277 597.805 291.591 597.248 290.593 597 289.844L596.938 289.657C596.938 289.532 596.876 289.407 596.814 289.283 596.443 288.596 595.451 288.534 595.142 289.283 594.832 289.969 595.266 292.214 596.814 294.398L596.876 294.522C598.363 296.768 594.336 295.458 592.911 295.021 591.425 294.585 586.841 293.337 586.345 293.711 585.664 294.211 586.035 295.084 587.522 295.52 589.009 295.957 593.345 297.517 593.097 298.265 592.85 299.076 585.416 296.643 585.416 296.643 585.416 296.643 583.867 295.832 583.557 296.706 583 298.327 591.053 300.324 591.858 300.511 592.354 300.573 592.106 301.446 591.549 301.322 590.991 301.134 584.177 298.702 583.557 300.324 583.124 301.571 590.186 302.008 591.363 303.318 592.478 304.628 585.973 302.382 585.602 303.63 585.416 304.066 585.416 304.441 589.319 305.127 591.363 305.501 595.266 305.75 598.611 305.875L599.478 306 599.478 305.875 635.531 305.376C640.796 305.376 645.195 304.565 646.867 299.513L653 280.799 639.991 274" fill="#C0776A" fill-rule="evenodd"/><path d="M740.625 444.545 734.562 439.152 744.938 428 754 435.818 753.375 436.545C750.688 439.818 739.438 452.788 736.875 454.303 734 456 740.625 444.545 740.625 444.545Z" fill="#F03D5F" fill-rule="evenodd"/><path d="M736.253 455 736.253 455C736.063 455 736 454.939 736 454.754 736 454.877 736.126 454.939 736.253 454.939 736.316 454.939 736.505 454.877 736.695 454.754 736.695 454.754 736.758 454.693 736.821 454.693 736.505 454.877 736.316 455 736.253 455M737.01 451.557C737.137 451.188 737.326 450.88 737.389 450.757 737.263 451.003 737.074 451.311 737.01 451.557ZM744.274 447.252C748 443.071 751.916 438.521 753.368 436.738L754 436C751.726 438.951 747.811 443.379 744.274 447.252" fill="#FFFFFF" fill-rule="evenodd"/><path d="M736.376 455C736.251 455 736.125 454.939 736.125 454.817 736 454.206 736.627 452.617 737.129 451.64 737.192 451.396 737.38 451.09 737.505 450.846 737.505 450.785 737.505 450.785 737.505 450.785 737.693 450.601 737.882 450.54 738.132 450.54 738.948 450.54 739.951 451.09 739.951 451.09L753.686 436 754 436.183 753.373 436.916C751.93 438.688 748.042 443.209 744.341 447.363 741.143 450.785 738.195 453.778 736.941 454.756 736.878 454.756 736.815 454.817 736.815 454.817 736.627 454.939 736.439 455 736.376 455" fill="#F57797" fill-rule="evenodd"/><path d="M754 435C754 435 753.936 435.064 753.809 435.192 753.682 435.383 753.491 435.575 753.364 435.831 752.855 436.406 752.219 437.173 751.519 438.067 749.929 439.92 747.767 442.476 745.286 445.224 742.806 447.971 740.516 450.399 738.799 452.189 738.035 453.019 737.336 453.658 736.763 454.233 736.572 454.425 736.382 454.617 736.254 454.808 736.127 454.936 736.064 455 736 454.936 736 454.936 736.064 454.872 736.191 454.744 736.382 454.617 736.509 454.425 736.763 454.169 737.272 453.594 737.908 452.891 738.735 452.061 740.389 450.335 742.678 447.843 745.159 445.096 747.64 442.348 749.802 439.792 751.392 437.939 752.155 437.109 752.792 436.342 753.3 435.767 753.491 435.575 753.618 435.383 753.809 435.192 753.936 435.064 754 435 754 435Z" fill="#17282F" fill-rule="evenodd"/><path d="M740 450.929C739.957 451 739.609 450.571 739.043 450.357 738.478 450.214 738.043 450.429 738.043 450.357 738 450.286 738.478 450 739.043 450.143 739.652 450.357 740 450.929 740 450.929Z" fill="#17282F" fill-rule="evenodd"/><path d="M742 446.833C742 447 741.5 447 741 446.833 740.417 446.5 740 446.333 740 446.167 740 446 740.5 446 741 446.333 741.583 446.5 742 446.667 742 446.833Z" fill="#17282F" fill-rule="evenodd"/><path d="M742 445.25C742 445.5 741.762 445.75 741.476 446 741.238 446 741 446 741 445.75 741 445.5 741.19 445.25 741.476 445.25 741.762 445 742 445 742 445.25Z" fill="#17282F" fill-rule="evenodd"/><path d="M742 443.048C742 443.095 741.667 443.286 741.111 443.571 740.667 443.81 740.111 444 740.111 443.952 740 443.952 740.333 443.714 740.889 443.476 741.444 443.19 741.889 443 742 443.048Z" fill="#17282F" fill-rule="evenodd"/><path d="M740.947 442.08C741 442.08 740.895 442.64 740.632 443.12 740.368 443.68 740.053 444 740 443.92 740 443.84 740.263 443.52 740.526 442.96 740.737 442.48 740.947 442 740.947 442.08" fill="#17282F" fill-rule="evenodd"/><path d="M739.913 445.138C739.957 445.138 739.783 445.483 739.478 445.966 739.304 446.172 739.087 446.379 738.826 446.655 738.696 446.724 738.609 446.862 738.435 446.931 738.348 447 738.261 447 738.174 446.931 738.043 446.862 738 446.655 738 446.517 738.217 445.345 738.913 445 739.348 445.069 739.565 445.069 739.739 445.207 739.826 445.276 739.957 445.345 740 445.414 740 445.483 740 445.483 739.783 445.207 739.348 445.207 739.13 445.207 738.913 445.276 738.652 445.483 738.435 445.69 738.217 446.103 738.13 446.517 738.13 446.724 738.261 446.793 738.391 446.724 738.522 446.724 738.652 446.586 738.783 446.448 739.043 446.241 739.217 446.034 739.391 445.828 739.739 445.414 739.913 445.138 739.913 445.138" fill="#17282F" fill-rule="evenodd"/><path d="M739.895 445.943C739.895 446 739.684 445.943 739.421 445.6 739.263 445.486 739.158 445.257 739.105 444.971 739.053 444.743 739 444.4 739.263 444.114 739.421 444 739.632 444.057 739.737 444.171 739.842 444.286 739.842 444.457 739.895 444.571 739.947 444.857 740 445.086 740 445.257 740 445.657 739.947 445.886 739.947 445.886 739.895 445.886 739.947 445.657 739.895 445.257 739.895 445.086 739.842 444.857 739.737 444.629 739.684 444.4 739.526 444.114 739.368 444.229 739.211 444.4 739.211 444.743 739.263 444.971 739.316 445.2 739.368 445.371 739.474 445.543 739.684 445.829 739.895 445.943 739.895 445.943Z" fill="#17282F" fill-rule="evenodd"/><path d="M751 433C751 433 750.677 433.312 750.226 433.875 749.839 434.438 749.387 435.375 749.323 436.438 749.194 437.5 749.581 438.438 749.903 439.062 750.226 439.688 750.548 440 750.548 440 750.548 440 750.419 439.938 750.29 439.812 750.161 439.688 749.968 439.438 749.774 439.125 749.387 438.5 749 437.5 749.129 436.375 749.194 435.312 749.645 434.375 750.097 433.812 750.355 433.5 750.548 433.312 750.742 433.188 750.871 433.062 751 433 751 433" fill="#17282F" fill-rule="evenodd"/><path d="M745 430.058C745.065 430 746.169 430.87 747.532 431.913 748.896 433.014 750 433.942 750 433.942 749.935 434 748.766 433.13 747.403 432.087 746.039 430.986 745 430.058 745 430.058Z" fill="#17282F" fill-rule="evenodd"/><path d="M747.94 440C748 440.073 747.46 441.091 746.62 442.182 745.84 443.273 745.06 444 745.06 444 745 443.927 745.72 443.127 746.5 442.036 747.28 440.945 747.88 440 747.94 440" fill="#17282F" fill-rule="evenodd"/><path d="M750.125 438C750.25 438 750.375 438.267 750.625 438.467 750.75 438.733 751 438.933 751 439 750.875 439 750.5 438.867 750.25 438.6 750 438.267 750.125 438 750.125 438Z" fill="#17282F" fill-rule="evenodd"/><path d="M749.5 436C749.75 436 749.75 436.214 750 436.5 750 436.786 749.75 437 749.75 437 749.5 437 749.25 436.786 749.25 436.5 749 436.214 749.25 436 749.5 436Z" fill="#17282F" fill-rule="evenodd"/><path d="M751 434.067C751 434.133 750.75 434.267 750.5 434.533 750.375 434.733 750.375 434.933 750.25 435 750.125 435 750 434.733 750.25 434.4 750.5 434.133 750.875 434 751 434.067" fill="#17282F" fill-rule="evenodd"/><path d="M751 434C751 434 751 434.25 751 434.5 750.75 434.75 750.25 435 750.25 434.875 750 434.875 750 434.625 750.25 434.375 750.5 434.125 750.75 434 751 434Z" fill="#17282F" fill-rule="evenodd"/><path d="M738 442 737 441 737 441 738 442Z" fill="#A7A9A8" fill-rule="evenodd"/><path d="M738.438 442 738.438 441.941 737 440.751 746.312 431C746.625 431.297 747 431.535 747.312 431.892 747.938 432.368 748.562 432.903 749 433.2L738.438 442" fill="#BA2C42" fill-rule="evenodd"/><path d="M748 431 747 430.2 747 430 748 431Z" fill="#A7A9A8" fill-rule="evenodd"/><path d="M748.915 433C748.441 432.679 747.831 432.196 747.085 431.714 746.746 431.446 746.339 431.179 746 430.964L747.153 430 748.169 430.696 750 432.196 748.915 433Z" fill="#BA2C42" fill-rule="evenodd"/><path d="M748.867 433C748.4 432.744 747.733 432.282 747.067 431.872 746.733 431.564 746.333 431.359 746 431.103L746.133 431C746.467 431.205 746.867 431.462 747.2 431.718 747.933 432.179 748.533 432.641 749 432.949L748.867 433Z" fill="#0F191D" fill-rule="evenodd"/><path d="M692.219 477.996 690.93 469.717 705.912 467 708 479.071 707.079 479.323C702.965 480.271 686.14 484 683.254 483.621 680 483.242 692.219 477.996 692.219 477.996" fill="#F03D5F" fill-rule="evenodd"/><path d="M682.693 484C682.378 484 682.189 484 682.063 483.931 682 483.792 682 483.653 682.063 483.514 682 483.792 682.126 483.931 682.63 484 682.63 484 682.693 484 682.755 484L682.693 484ZM693.332 482.403C698.872 481.292 704.852 479.833 707.056 479.278L708 479C704.412 480.111 698.557 481.431 693.332 482.403ZM684.707 481.5C685.274 481.083 685.777 480.875 685.777 480.875L685.777 480.875C685.4 481.083 685.022 481.292 684.707 481.5Z" fill="#FFFFFF" fill-rule="evenodd"/><path d="M682.755 484C682.693 484 682.63 484 682.63 484 682.126 483.935 682 483.805 682.063 483.545 682.378 483.026 683.7 482.182 684.707 481.662 685.022 481.468 685.4 481.273 685.777 481.078 685.777 481.078 685.777 481.078 685.84 481.078 686.722 481.078 687.477 482.831 687.477 482.831L707.937 479 708 479.325 707.056 479.584C704.852 480.104 698.872 481.468 693.332 482.507 688.61 483.351 684.392 484 682.755 484" fill="#F57797" fill-rule="evenodd"/><path d="M708 479C708 479 707.875 479.055 707.749 479.055 707.499 479.11 707.248 479.164 706.998 479.219 706.246 479.384 705.306 479.548 704.241 479.767 701.86 480.205 698.665 480.753 695.031 481.301 691.46 481.849 688.202 482.288 685.822 482.562 684.694 482.671 683.754 482.781 683.002 482.89 682.752 482.945 682.501 482.945 682.251 482.945 682.063 483 682 483 682 483 682 483 682.063 482.945 682.251 482.945 682.501 482.89 682.752 482.89 683.002 482.836 683.754 482.726 684.694 482.616 685.822 482.452 688.14 482.123 691.398 481.685 695.031 481.137 698.602 480.589 701.86 480.041 704.178 479.658 705.306 479.438 706.183 479.274 706.935 479.164 707.248 479.11 707.499 479.055 707.687 479.055 707.875 479 708 479 708 479Z" fill="#17282F" fill-rule="evenodd"/><path d="M687.935 482.944C687.871 483 687.742 482.389 687.161 481.833 686.645 481.333 686 481.111 686 481.056 686 481 686.774 481.167 687.355 481.722 687.935 482.333 688 482.944 687.935 482.944Z" fill="#17282F" fill-rule="evenodd"/><path d="M691.944 479.9C691.944 480 691.667 479.6 691.444 479.1 691.167 478.6 691 478.1 691.056 478.1 691.056 478 691.278 478.4 691.556 478.9 691.833 479.4 692 479.8 691.944 479.9Z" fill="#17282F" fill-rule="evenodd"/><path d="M692.947 478.923C692.947 479 692.684 478.846 692.421 478.615 692.211 478.385 692 478.154 692 478.077 692.053 478 692.263 478.154 692.526 478.385 692.789 478.615 693 478.846 692.947 478.923Z" fill="#17282F" fill-rule="evenodd"/><path d="M693 477.167C693 477.333 692.769 477.5 692.5 477.833 692.231 478 692 478 692 478 692 477.833 692.231 477.5 692.5 477.333 692.769 477 692.962 477 693 477.167" fill="#17282F" fill-rule="evenodd"/><path d="M694 476.1C694 476.1 693.655 476.5 693.103 476.7 692.483 477 692 476.9 692.069 476.8 692 476.7 692.483 476.7 693.034 476.5 693.586 476.3 694 476 694 476.1Z" fill="#17282F" fill-rule="evenodd"/><path d="M691 478.63C691 478.63 690.633 478.778 690.02 478.852 689.714 478.852 689.408 478.852 688.98 478.778 688.796 478.704 688.551 478.704 688.367 478.63 688.245 478.556 688.122 478.481 688.061 478.333 688 478.111 688.061 477.889 688.122 477.815 688.98 477 689.959 477.444 690.388 477.963 690.633 478.185 690.755 478.481 690.816 478.704 690.878 478.852 690.939 479 690.939 479 690.878 479 690.755 478.556 690.327 478.111 690.082 477.889 689.776 477.667 689.408 477.593 689.041 477.593 688.551 477.667 688.306 477.963 688.122 478.111 688.245 478.333 688.429 478.407 688.612 478.481 688.796 478.556 688.98 478.556 689.408 478.63 689.714 478.704 690.02 478.704 690.633 478.704 691 478.63 691 478.63" fill="#17282F" fill-rule="evenodd"/><path d="M691.19 479C691.19 479 691.048 478.647 691 478.029 691 477.676 691.048 477.324 691.143 476.971 691.238 476.618 691.381 476.088 691.667 476.088 691.857 476 692 476.353 692 476.618 692 476.882 691.952 477.059 691.905 477.235 691.81 477.676 691.714 477.941 691.619 478.206 691.429 478.735 691.286 478.912 691.238 478.912 691.238 478.912 691.381 478.647 691.571 478.118 691.619 477.853 691.714 477.588 691.762 477.147 691.857 476.882 691.905 476.353 691.667 476.353 691.476 476.353 691.333 476.706 691.238 477.059 691.143 477.412 691.143 477.765 691.143 478.029 691.095 478.647 691.238 478.912 691.19 479" fill="#17282F" fill-rule="evenodd"/><path d="M707 475C707 475.06 706.539 475.06 705.816 475.238 705.092 475.417 704.171 475.833 703.447 476.607 702.658 477.381 702.329 478.274 702.197 478.929 702.066 479.583 702.132 480 702.066 480 702.066 480 702.066 479.94 702 479.702 702 479.524 702 479.226 702.066 478.929 702.132 478.214 702.461 477.262 703.25 476.488 704.039 475.655 705.026 475.238 705.816 475.119 706.145 475 706.474 475 706.671 475 706.868 475 707 475 707 475Z" fill="#17282F" fill-rule="evenodd"/><path d="M704.095 469.059C704.19 469 704.667 470.366 705.143 471.97 705.619 473.634 706 475 705.905 475 705.81 475 705.333 473.693 704.857 472.03 704.381 470.366 704 469.059 704.095 469.059Z" fill="#17282F" fill-rule="evenodd"/><path d="M699.944 479.067C700 479.133 699.111 479.467 698 479.733 696.889 480 696 480 696 479.933 696 479.933 696.889 479.8 698 479.533 699.056 479.267 699.944 479 699.944 479.067Z" fill="#17282F" fill-rule="evenodd"/><path d="M703.857 478.062C704 478.062 703.714 478.25 703.571 478.5 703.429 478.75 703.429 479 703.286 479 703.286 479 703 478.75 703.286 478.5 703.429 478.188 703.857 478 703.857 478.062" fill="#17282F" fill-rule="evenodd"/><path d="M704.889 477C705 477.083 704.889 477.25 704.667 477.5 704.444 477.833 704.111 478 704.111 477.917 704 477.917 704.111 477.667 704.333 477.417 704.556 477.167 704.889 477 704.889 477" fill="#17282F" fill-rule="evenodd"/><path d="M705.929 476.111C705.929 476.222 705.714 476.333 705.5 476.556 705.214 476.778 705.071 477 705 477 705 476.889 705.071 476.444 705.357 476.222 705.714 476 706 476.111 705.929 476.111" fill="#17282F" fill-rule="evenodd"/><path d="M707 475C707 475.2 706.857 475.6 706.571 475.8 706.286 476 706.143 476 706 475.8 706 475.8 706.143 475.4 706.429 475.2 706.714 475 707 475 707 475Z" fill="#17282F" fill-rule="evenodd"/><path d="M692 475 691 473 691 473 692 475 692 475Z" fill="#A7A9A8" fill-rule="evenodd"/><path d="M691.306 475 691 472.721 704.328 470C704.389 470.441 704.45 470.956 704.572 471.544 704.694 472.5 704.878 473.382 705 474.044L691.306 475" fill="#BA2C42" fill-rule="evenodd"/><path d="M707 471 706 470 706.5 470 707 471Z" fill="#A7A9A8" fill-rule="evenodd"/><path d="M705.625 474C705.5 473.4 705.375 472.6 705.25 471.667 705.125 471.2 705.062 470.733 705 470.267L706.5 470 706.75 471.333 707 473.933 705.625 474Z" fill="#BA2C42" fill-rule="evenodd"/><path d="M705.846 474C705.692 473.357 705.462 472.5 705.308 471.571 705.154 471 705.077 470.5 705 470.071L705.231 470C705.308 470.5 705.385 471 705.538 471.5 705.692 472.5 705.846 473.357 706 474L705.846 474Z" fill="#0F191D" fill-rule="evenodd"/><path d="M646.689 247.351 618.245 218.797 617.625 215.74C617.501 215.189 617.377 214.517 617.253 213.844 617.129 212.988 617.129 212.132 617.315 211.276 617.501 210.298 617.811 208.953 618.183 208.341 618.678 207.485 617.873 206.507 617.129 206.813 616.324 207.179 614.96 209.442 614.65 212.499 614.341 215.556 611.676 211.521 610.684 209.992 609.693 208.525 606.408 204.122 605.665 204.061 604.673 204 604.425 205.101 605.479 206.507 606.47 207.974 609.259 212.56 608.515 213.049L608.453 213.049C606.842 212.744 605.293 213.538 604.549 214.945 603.806 216.29 603 218.247 603.682 219.103 604.921 220.815 608.206 223.872 608.206 223.872L609.135 224.667C609.135 224.667 633.799 259.886 639.128 261.047 642.475 261.781 694.096 266 694.096 266L698 251.937 646.689 247.351" fill="#C0776A" fill-rule="evenodd"/><path d="M604 218.25C604.854 219.136 605.707 220.091 606.622 221.045 606.866 221.318 607.171 221.659 607.598 221.795 607.963 222 608.451 221.932 608.695 221.591 608.939 221.318 609 220.841 608.878 220.432 608.756 220.091 608.512 219.75 608.268 219.409 607.415 218.318 606.561 217.159 605.768 216" fill="#C0776A" fill-rule="evenodd"/><path d="M605.045 216C605.114 216 605.591 216.522 606.477 217.37 606.886 217.891 607.364 218.413 607.909 218.935 608.114 219.196 608.455 219.522 608.659 219.978 608.932 220.37 609 221.022 608.591 221.478 608.182 222 607.5 222 607.023 221.87 606.545 221.674 606.205 221.348 605.864 221.087 605.386 220.565 604.841 220.109 604.364 219.587 603.545 218.739 603 218.217 603.068 218.152 603.136 218.087 603.75 218.543 604.636 219.326 605.182 219.783 605.727 220.239 606.273 220.696 606.545 220.957 606.886 221.217 607.227 221.348 607.568 221.413 607.977 221.348 608.114 221.152 608.318 220.891 608.318 220.5 608.182 220.174 607.977 219.848 607.705 219.587 607.5 219.261 607.023 218.674 606.545 218.152 606.136 217.63 605.386 216.717 604.977 216.065 605.045 216" fill="#B85549" fill-rule="evenodd"/><path d="M605 216.207C605.854 217.172 606.768 218.069 607.622 219.034 607.927 219.31 608.232 219.655 608.598 219.862 608.963 220 609.451 219.931 609.695 219.655 609.939 219.31 610 218.828 609.878 218.483 609.756 218.069 609.512 217.724 609.268 217.379 608.415 216.276 607.622 215.103 606.768 214" fill="#C0776A" fill-rule="evenodd"/><path d="M607.045 214.065C607.114 214 607.659 214.522 608.477 215.37 608.955 215.891 609.432 216.413 609.909 216.935 610.182 217.261 610.455 217.522 610.727 217.978 610.932 218.435 611 219.022 610.591 219.543 610.182 220 609.5 220 609.023 219.87 608.545 219.674 608.205 219.348 607.864 219.087 607.386 218.565 606.841 218.109 606.364 217.652 605.545 216.739 605 216.217 605.068 216.152 605.136 216.087 605.75 216.543 606.636 217.326 607.182 217.783 607.727 218.239 608.273 218.696 608.545 218.957 608.886 219.217 609.227 219.348 609.568 219.478 609.977 219.413 610.182 219.152 610.318 218.957 610.318 218.5 610.182 218.239 610.045 217.913 609.705 217.587 609.5 217.261 609.023 216.739 608.545 216.152 608.136 215.63 607.386 214.717 606.977 214.13 607.045 214.065" fill="#B85549" fill-rule="evenodd"/><path d="M607 214.875C607.915 215.614 608.768 216.409 609.622 217.205 609.927 217.432 610.232 217.716 610.598 217.83 610.963 218 611.451 217.943 611.695 217.659 612 217.432 612 217.034 611.878 216.693 611.756 216.352 611.512 216.125 611.268 215.841 610.415 214.932 609.622 213.966 608.768 213" fill="#C0776A" fill-rule="evenodd"/><path d="M609 213C609.069 213 609.621 213.522 610.448 214.37 610.931 214.891 611.414 215.413 611.897 215.935 612.172 216.196 612.448 216.522 612.724 216.978 612.931 217.37 613 218.022 612.586 218.478 612.172 219 611.483 219 611 218.87 610.517 218.674 610.172 218.348 609.897 218.087 609.345 217.565 608.862 217.043 608.31 216.587 607.483 215.739 607 215.217 607 215.152 607.069 215.087 607.69 215.543 608.655 216.326 609.138 216.783 609.69 217.239 610.241 217.696 610.517 217.957 610.862 218.217 611.207 218.283 611.552 218.413 611.966 218.348 612.172 218.152 612.379 217.891 612.31 217.5 612.172 217.174 612.034 216.848 611.69 216.587 611.483 216.261 611 215.674 610.586 215.152 610.103 214.63 609.345 213.652 608.931 213.065 609 213" fill="#B85549" fill-rule="evenodd"/><path d="M612.059 219.321C612 219.259 612.647 219.136 613.529 219.444L613.294 219.691C613.176 219.198 613.118 218.519 613.176 217.901 613.353 216.914 613.765 216.173 614.118 215.679 614.529 215.185 614.824 215 614.882 215.062 615 215.185 613.941 216.235 613.706 217.963 613.588 218.58 613.647 219.136 613.706 219.568L613.765 220 613.412 219.815C612.647 219.506 612 219.444 612.059 219.321" fill="#B85549" fill-rule="evenodd"/><path d="M656.244 277.317 653.6 286.156 637 278.668C637.615 276.826 640.382 268.54 645.608 255.467 648.559 248.163 655.076 242.946 662.823 241.657 668.233 240.737 674.136 240 678.685 240.061 688.031 240.184 701.741 246.015 703.586 255.099 705 262.034 700.327 305.49 700.327 305.49L703.094 322 654.707 319.361 656.244 277.317" fill="#F03D5F" fill-rule="evenodd"/><path d="M655 246C655 246.062 655.475 246.062 656.247 246.373 656.96 246.747 658.03 247.432 658.861 248.677 659.753 249.859 660.347 251.665 660.465 253.657 660.584 255.711 660.287 257.952 659.99 260.317 659.277 264.986 658.148 269.157 657.376 272.145 657.02 273.576 656.723 274.759 656.485 275.693 656.247 276.502 656.129 277 656.188 277 656.188 277 656.366 276.564 656.604 275.755 656.901 274.884 657.257 273.701 657.673 272.207 658.505 269.219 659.634 265.048 660.347 260.38 660.703 258.014 661 255.711 660.822 253.657 660.703 251.54 660.049 249.735 659.099 248.49 658.148 247.183 657.079 246.498 656.247 246.249 655.891 246.124 655.535 246.062 655.356 246 655.119 246 655 246 655 246" fill="#17282F" fill-rule="evenodd"/><path d="M650 248.5C650 248.224 661.193 248 675 248 688.807 248 700 248.224 700 248.5 700 248.776 688.807 249 675 249 661.193 249 650 248.776 650 248.5Z" fill="#F3F2F1" fill-rule="evenodd"/><path d="M645 256.5C645 256.224 658.208 256 674.5 256 690.792 256 704 256.224 704 256.5 704 256.776 690.792 257 674.5 257 658.208 257 645 256.776 645 256.5Z" fill="#F3F2F1" fill-rule="evenodd"/><path d="M642 265.5C642 265.224 655.879 265 673 265 690.121 265 704 265.224 704 265.5 704 265.776 690.121 266 673 266 655.879 266 642 265.776 642 265.5Z" fill="#F3F2F1" fill-rule="evenodd"/><path d="M639 272.5C639 272.224 653.327 272 671 272 688.673 272 703 272.224 703 272.5 703 272.776 688.673 273 671 273 653.327 273 639 272.776 639 272.5Z" fill="#F3F2F1" fill-rule="evenodd"/><path d="M703 281.75C703 282 692.453 282 679.5 282 666.547 281.75 656 281.5 656 281.25 656 281 666.547 281 679.5 281 692.453 281.25 703 281.5 703 281.75Z" fill="#F3F2F1" fill-rule="evenodd"/><path d="M702 287.75C702 288 691.737 288 679.031 288 666.324 288 656 287.75 656 287.5 656 287.25 666.324 287 679.031 287.25 691.737 287.25 702 287.5 702 287.75Z" fill="#F3F2F1" fill-rule="evenodd"/><path d="M701 293.75C701 294 690.709 294 678 294 665.291 294 655 293.75 655 293.5 655 293.25 665.291 293 678 293.25 690.709 293.25 701 293.5 701 293.75Z" fill="#F3F2F1" fill-rule="evenodd"/><path d="M701 301C701 301 700.816 301 700.57 301 700.202 301 699.772 301 699.22 301 697.992 301 696.396 301 694.431 301 690.318 301 684.731 300.9 678.531 300.7 672.33 300.5 666.744 300.3 662.63 300.2 660.666 300.2 659.008 300.1 657.78 300.1 657.289 300.1 656.859 300.1 656.491 300.1 656.184 300.1 656 300 656 300 656 300 656.184 300 656.491 300 656.859 300 657.289 300 657.78 300 659.008 300 660.666 300 662.63 300 666.682 300 672.33 300.1 678.531 300.3 684.67 300.5 690.256 300.7 694.431 300.8 696.396 300.8 697.992 300.9 699.22 300.9 699.772 300.9 700.202 300.9 700.57 300.9 700.816 300.9 701 301 701 301" fill="#F3F2F1" fill-rule="evenodd"/><path d="M700 306.5C700 306.75 689.911 307 677.531 306.75 665.089 306.75 655 306.5 655 306.25 655 306 665.089 306 677.531 306 689.911 306 700 306.25 700 306.5Z" fill="#F3F2F1" fill-rule="evenodd"/><path d="M702 313.75C702 314 691.466 314 678.5 314 665.534 314 655 313.75 655 313.5 655 313.25 665.534 313 678.5 313.25 691.466 313.25 702 313.5 702 313.75Z" fill="#F3F2F1" fill-rule="evenodd"/><path d="M703 319.125C703 319.25 692.055 319.5 678.531 319.75 664.945 319.875 654 320 654 319.875 654 319.75 664.945 319.5 678.531 319.25 692.055 319.125 703 319 703 319.125" fill="#F3F2F1" fill-rule="evenodd"/><path d="M655 279.947C655 280 651.173 279.842 646.469 279.579 641.764 279.316 638 279.105 638 279.053 638 279 641.827 279.158 646.469 279.421 651.173 279.632 655 279.895 655 279.947Z" fill="#F3F2F1" fill-rule="evenodd"/><path d="M693 303.809C693 303.809 692.812 303.809 692.5 303.873 692.25 303.873 691.812 303.936 691.188 303.936 690.062 304 688.375 304 686.375 303.682 682.312 303.111 676.75 301.268 671.875 297.075 667.062 292.882 664.312 287.609 663.188 283.607 662.562 281.638 662.25 279.986 662.125 278.779 662.062 278.207 662 277.762 662 277.445 662 277.191 662 277 662 277 662.062 277 662.125 277.635 662.312 278.779 662.5 279.922 662.875 281.574 663.5 283.48 664.812 287.355 667.5 292.565 672.25 296.631 677 300.76 682.438 302.666 686.438 303.301 688.438 303.619 690.062 303.746 691.188 303.746 692.375 303.746 693 303.746 693 303.809" fill="#17282F" fill-rule="evenodd"/><path d="M655 281C655.286 280.333 655.714 279.667 656 279L655.857 280.636C655.571 280.697 655.429 280.818 655.143 280.879 655.143 280.879 655.143 280.879 655.143 280.879L655.143 280.879 655.143 280.879 655 281Z" fill="#C3C5C2" fill-rule="evenodd"/><path d="M656 280 656.056 278.326C656.333 276.775 656.667 275.225 656.944 273.612 657.111 273.178 657.222 272.682 657.389 272.124 658.389 272.124 659.444 272.124 660.5 272.124 659.5 275.039 658 277.767 656 280ZM657.444 271.938C657.444 271.876 657.5 271.752 657.5 271.69 658 269.767 658.611 267.411 659.167 264.682 660.056 264.682 660.944 264.682 661.889 264.682 661.778 267.163 661.333 269.643 660.556 271.938 659.5 271.938 658.444 271.938 657.444 271.938ZM658.111 267.907C658.333 266.853 658.556 265.798 658.778 264.682L658.833 264.682C658.611 265.86 658.333 266.915 658.111 267.907M658.833 264.496C658.889 264.248 658.944 264 659 263.814 658.944 264 658.889 264.248 658.833 264.496L658.833 264.496ZM659.222 264.496C659.5 263.07 659.778 261.519 660 259.907 660.111 259.225 660.222 258.543 660.278 257.922 660.389 257.302 660.556 256.62 660.722 256L660.722 256C661.611 258.729 662 261.643 661.889 264.496 661 264.496 660.111 264.496 659.222 264.496" fill="#DA314B" fill-rule="evenodd"/><path d="M657 274C657.133 273.494 657.267 272.988 657.4 272.482 657.4 272.482 657.467 272.482 657.533 272.482 657.333 273.051 657.2 273.557 657 274M657.4 272.292C657.733 270.901 658.067 269.573 658.4 268.182 658.667 267.17 659 266.095 659.267 264.893L659.667 264.893C659 267.676 658.267 270.079 657.667 272.04 657.667 272.103 657.6 272.229 657.6 272.292L657.4 272.292ZM659.267 264.704C659.333 264.451 659.4 264.198 659.467 264.008 659.933 261.984 660.467 259.96 661 258 660.933 258.632 660.8 259.328 660.667 260.024 660.4 261.668 660.067 263.249 659.733 264.704L659.267 264.704" fill="#111D23" fill-rule="evenodd"/><path d="M662 266C661.089 266 660.232 266 659.375 266L659.054 266 659 266C659.054 265.667 659.054 265.333 659.054 265L659.054 265 659.429 265C660.286 265 661.143 265 662 265 662 265.333 662 265.667 662 266Z" fill="#BABCBA" fill-rule="evenodd"/><path d="M660.932 273C659.644 273 658.356 273 657.136 273 657.068 273 657 273 657 273 657 272.667 657 272.333 657 272L657.203 272C658.424 272 659.712 272 661 272 661 272.333 660.932 272.667 660.932 273Z" fill="#BABCBA" fill-rule="evenodd"/><path d="M687.165 303C686.798 302.937 686.369 302.874 686.002 302.811 684.351 302.558 682.393 302.053 680.374 301.233 679.579 300.917 678.845 300.538 678.111 300.159 682.026 300.223 685.696 300.286 688.878 300.349 689 301.043 688.878 301.801 688.388 302.306 688.082 302.684 687.654 302.874 687.165 303M688.816 300.096C685.635 300.096 681.965 299.97 678.049 299.907 677.927 299.907 677.805 299.907 677.682 299.907 674.929 298.392 672.421 296.498 670.158 294.289 669.852 293.973 669.546 293.658 669.301 293.342 670.525 293.342 671.871 293.342 673.216 293.342 674.318 293.784 675.419 294.163 676.52 294.352 678.6 294.857 680.802 294.92 682.882 295.362 684.962 295.867 687.042 296.877 688.266 298.708 688.511 299.15 688.755 299.654 688.816 300.096M672.727 293.09C671.932 293.09 671.136 293.09 670.341 293.09L669.118 293.09C667.344 291.07 666.059 288.86 665.019 286.777L665.202 286.777C667.099 289.555 669.791 291.701 672.727 293.09M665.386 288.545C665.019 287.977 664.652 287.409 664.346 286.777 664.407 286.777 664.468 286.777 664.529 286.777 664.774 287.346 665.08 287.914 665.386 288.545M664.224 286.588C663.795 285.831 663.367 285.01 663 284.189L663.428 284C663.734 284.821 664.04 285.704 664.468 286.588L664.224 286.588ZM664.958 286.588C664.896 286.462 664.835 286.336 664.774 286.146 664.835 286.336 664.958 286.462 665.08 286.588 665.019 286.588 665.019 286.588 664.958 286.588" fill="#DA314B" fill-rule="evenodd"/><path d="M665 288 664.812 288C664.812 287.667 664.75 287.333 664.75 287 664.812 287 664.812 287 664.875 287 664.875 287.333 664.938 287.667 665 288ZM664.312 288C664.25 288 664.188 288 664.125 288 664.062 287.667 664.062 287.333 664 287L664.25 287C664.25 287.333 664.312 287.667 664.312 288" fill="#BABCBA" fill-rule="evenodd"/><path d="M673 294C671.687 294 670.373 294 669.179 294 669.119 293.75 669.06 293.5 669 293L670.194 293C670.97 293 671.746 293 672.522 293 672.701 293.5 672.881 293.75 673 294" fill="#BABCBA" fill-rule="evenodd"/><path d="M689 301C685.874 300.857 682.268 300.714 678.421 300.571 678.301 300.429 678.18 300.143 678 300 678.12 300 678.24 300 678.361 300 682.208 300.143 685.814 300.429 688.94 300.429 689 300.714 689 300.857 689 301Z" fill="#BABCBA" fill-rule="evenodd"/><path d="M686.32 303C685.763 303 685.082 302.875 684.526 302.686 683.041 302.31 681.557 301.809 680.134 301.182 682.175 301.997 684.155 302.498 685.825 302.749 686.196 302.812 686.629 302.875 687 302.937 686.753 303 686.567 303 686.32 303M669.804 294.284C668.01 292.528 666.402 290.647 664.979 288.578 664.67 287.951 664.361 287.386 664.113 286.822 664.113 286.759 664.052 286.696 664.052 286.634 663.619 285.756 663.309 284.878 663 284.063L663.062 284C663.433 284.752 663.866 285.505 664.361 286.195 664.423 286.383 664.485 286.508 664.546 286.634 664.546 286.696 664.608 286.759 664.608 286.822 665.66 288.891 666.959 291.086 668.753 293.092 668.814 293.218 668.876 293.281 668.938 293.343 669.186 293.657 669.495 293.97 669.804 294.284" fill="#111D23" fill-rule="evenodd"/><path d="M654 320 688.44 473 708 473 688.941 340.101 692.619 328.805 690.446 321.329 654 320Z" fill="#17282F" fill-rule="evenodd"/><path d="M681.262 339.176C682.913 340.976 681.935 397.015 681.935 397.015L735.978 443 749 431.457 704.677 388.637 706.022 336.942 703.21 321.179 679 320 681.262 339.176" fill="#17282F" fill-rule="evenodd"/><path d="M695.371 326C695.371 326 695.5 326.371 695.565 327.114 695.629 327.857 695.565 328.971 695.047 330.332 694.53 331.632 693.625 333.179 692.397 334.789 691.233 336.398 689.746 338.193 689.099 340.606 688.388 343.02 688.647 345.805 689.164 348.652 689.681 351.561 690.198 354.656 690.845 357.936 691.944 364.496 693.172 371.676 694.336 379.226 696.728 394.39 698.862 408.068 700.414 417.97 701.19 422.921 701.836 426.883 702.353 429.729 702.547 431.091 702.741 432.143 702.871 432.886 702.871 433.257 702.935 433.505 702.935 433.752 703 433.938 703 434 703 434 703 434 702.935 433.938 702.935 433.752 702.871 433.505 702.806 433.257 702.741 432.948 702.612 432.143 702.353 431.091 702.095 429.729 701.578 427.006 700.866 422.983 700.026 418.032 698.345 408.13 696.147 394.452 693.819 379.35 692.591 371.738 691.427 364.558 690.328 357.998 689.746 354.779 689.164 351.685 688.711 348.776 688.194 345.867 688 343.02 688.711 340.544 689.422 338.007 690.974 336.212 692.138 334.603 693.366 332.994 694.336 331.57 694.853 330.27 695.888 327.609 695.241 326 695.371 326" fill="#33535F" fill-rule="evenodd"/><path d="M704.938 389.118C705 389.235 703.577 389.647 701.969 390.412 700.361 391.176 699.186 392 699.124 391.882 699 391.824 700.052 390.706 701.722 389.941 703.392 389.118 704.938 389 704.938 389.118Z" fill="#33535F" fill-rule="evenodd"/><path d="M209.53 536.283C211.487 530.912 214.118 525.731 217.3 520.992 218.34 519.412 219.563 517.832 221.338 517.137 224.213 516 227.395 517.832 230.025 519.602 232.044 520.992 234.063 522.319 236.082 523.709 236.449 523.962 236.816 524.277 236.878 524.657 237 525.478 236.021 525.92 235.287 525.984 232.717 526.299 230.087 525.604 227.945 524.088 226.354 522.951 224.764 521.245 222.745 521.434 220.297 521.75 219.257 524.657 218.278 526.995 216.259 532.049 212.589 536.283 208 539L209.53 536.283" fill="#F03D5F" fill-rule="evenodd"/><path d="M209.068 537.011C209.569 524.769 210.07 512.403 213.016 500.532 216.023 488.599 221.663 477.038 231 469 229.809 479.325 225.987 489.156 222.227 498.801 217.151 511.909 212.076 524.954 207 538L209.068 537.011Z" fill="#F03D5F" fill-rule="evenodd"/><path d="M207 541.206C205.3 530.209 202.204 519.396 197.893 509.193 197.225 507.666 196.496 506.077 195.1 505.222 193.036 504 190.425 504.794 188.179 505.772 183.018 508.154 178.161 511.27 173.85 515.119 173.546 515.424 173.182 515.73 173.121 516.219 173 516.891 173.546 517.502 174.214 517.685 174.882 517.868 175.55 517.685 176.218 517.563 180.225 516.585 184.232 515.669 188.239 514.752 189.454 514.447 190.729 514.203 191.943 514.63 193.339 515.18 194.129 516.707 194.796 518.051 198.743 526.055 202.689 533.997 206.575 542L207 541.206" fill="#F03D5F" fill-rule="evenodd"/><path d="M208 539 208.737 537.688 209.475 537.312C209.536 536.938 209.536 536.562 209.536 536.188 211.564 530.938 214.144 525.875 217.339 521.188 218.383 519.625 219.612 518.062 221.394 517.375 222.008 517.125 222.623 517 223.299 517 225.633 517 228.03 518.438 230.119 519.812 232.146 521.188 234.174 522.5 236.201 523.875 236.57 524.125 236.939 524.438 237 524.812 237 524.875 237 524.938 237 524.938 237 525.625 236.14 526.062 235.403 526.125 234.972 526.188 234.604 526.188 234.174 526.188 232.023 526.188 229.811 525.562 228.03 524.25 226.494 523.188 225.019 521.625 223.176 521.625 223.053 521.625 222.93 521.625 222.807 521.625 220.35 521.938 219.305 524.812 218.322 527.125 216.294 532.125 212.608 536.312 208 539Z" fill="#9C2438" fill-rule="evenodd"/><path d="M207 538C207.973 536.042 208.946 534.021 210 532 209.919 533.326 209.838 534.589 209.757 535.853 209.757 535.916 209.757 535.916 209.757 535.979L208.703 537.368 207 538Z" fill="#9C2438" fill-rule="evenodd"/><path d="M210 532C210.425 521.387 211.092 510.774 213.581 500.469 216.494 488.56 221.957 477.022 231 469 229.847 479.305 226.145 489.116 222.503 498.741 218.315 509.848 214.127 520.955 210 532" fill="#9C2438" fill-rule="evenodd"/><path d="M209 537 210 536.083C210 536.042 210 536.042 210 536 210 536.25 210 536.5 209.923 536.75L209 537Z" fill="#54111D" fill-rule="evenodd"/><path d="M206.574 542C202.682 533.866 198.728 525.794 194.775 517.66 194.106 516.294 193.315 514.742 191.916 514.183 191.429 513.997 190.943 513.935 190.456 513.935 189.726 513.935 188.936 514.121 188.206 514.307 184.191 515.239 180.177 516.17 176.163 517.163 175.737 517.225 175.25 517.35 174.764 517.35 174.581 517.35 174.338 517.35 174.156 517.288 173.547 517.101 173 516.542 173 515.922 173 515.859 173 515.859 173.061 515.797 173.122 515.301 173.487 514.99 173.791 514.68 178.109 510.768 182.975 507.601 188.145 505.18 189.544 504.559 191.186 504 192.646 504 193.497 504 194.349 504.186 195.079 504.621 196.478 505.49 197.208 507.105 197.877 508.657 202.195 519.026 205.297 530.016 207 541.193L206.574 542Z" fill="#BA2C42" fill-rule="evenodd"/><path d="M225.549 449C225.549 449 209.799 466.068 208.635 492.103 207.471 518.2 206 537 206 537L208.819 537C208.819 537 214.518 484.435 218.318 475.221 222.117 466.068 228 453.02 225.549 449" fill="#F03D5F" fill-rule="evenodd"/><path d="M226 449C226 449 225.874 449.246 225.621 449.8 225.369 450.415 224.99 451.153 224.485 452.137 223.538 454.167 222.213 457.182 220.698 460.873 219.183 464.625 217.542 469.116 216.027 474.222 214.449 479.266 212.934 484.926 211.924 490.954 211.355 493.969 211.166 496.921 210.914 499.813 210.661 502.704 210.535 505.472 210.346 508.117 210.03 513.408 209.714 518.206 209.272 522.205 208.831 526.203 208.262 529.402 207.821 531.617 207.631 532.724 207.379 533.524 207.252 534.139 207.126 534.692 207 535 207 535 207 535 207 534.692 207.126 534.077 207.252 533.524 207.442 532.662 207.631 531.555 208.01 529.34 208.515 526.142 208.894 522.143 209.272 518.144 209.588 513.408 209.841 508.117 210.03 505.411 210.156 502.642 210.346 499.751 210.598 496.921 210.85 493.907 211.355 490.893 212.429 484.803 213.944 479.143 215.522 474.037 217.1 468.993 218.804 464.502 220.319 460.75 221.897 456.997 223.286 454.044 224.296 452.076 224.801 451.03 225.243 450.292 225.558 449.738 225.811 449.246 226 449 226 449" fill="#17282F" fill-rule="evenodd"/><path d="M236.712 473C236.712 473 217.458 491.584 215.25 509.115 213.104 526.646 212 536 212 536L213.901 536C213.901 536 218.439 511.035 224.325 503.168 230.212 495.301 238 475.168 236.712 473" fill="#F03D5F" fill-rule="evenodd"/><path d="M236 475C236 475 235.939 475.185 235.694 475.617 235.511 475.986 235.205 476.541 234.838 477.219 233.981 478.699 232.88 480.734 231.473 483.2 228.66 488.255 224.745 495.222 221.258 503.298 217.71 511.374 215.447 519.019 214.346 524.691 213.795 527.527 213.489 529.869 213.306 531.472 213.245 532.274 213.184 532.89 213.122 533.322 213.122 533.753 213.061 534 213.061 534 213 534 213 533.753 213.061 533.322 213.061 532.89 213.061 532.274 213.122 531.472 213.245 529.869 213.489 527.527 213.979 524.629 214.957 518.957 217.221 511.189 220.769 503.051 224.316 494.975 228.231 488.008 231.168 483.015 232.574 480.487 233.798 478.514 234.654 477.096 235.021 476.48 235.388 475.925 235.633 475.555 235.878 475.185 236 475 236 475" fill="#17282F" fill-rule="evenodd"/><path d="M199.023 477C199.023 477 196 513.296 203.012 535L205.392 535C205.392 535 207 488.036 199.023 477Z" fill="#F03D5F" fill-rule="evenodd"/><path d="M201.05 484C201.05 484 201.05 484.185 201.1 484.494 201.15 484.926 201.2 485.42 201.25 485.976 201.35 487.396 201.45 489.248 201.6 491.471 201.9 496.04 202.3 502.461 202.7 509.5 203.15 516.539 203.5 522.898 203.7 527.529 203.8 529.752 203.9 531.604 203.95 532.962 203.95 533.58 204 534.074 204 534.444 204 534.815 204 535 204 535 203.95 535 203.95 534.815 203.9 534.444 203.9 534.074 203.85 533.58 203.8 532.962 203.7 531.604 203.55 529.752 203.4 527.529 203.1 522.898 202.7 516.539 202.3 509.5 201.9 502.461 201.55 496.102 201.3 491.471 201.2 489.248 201.1 487.396 201.05 486.038 201.05 485.42 201.05 484.926 201 484.556 201 484.185 201 484 201.05 484" fill="#17282F" fill-rule="evenodd"/><path d="M194.526 533C194.526 533 201.503 538.054 201.135 540.396 200.768 542.738 184 555.374 185.04 565.235 186.142 575.159 194.159 582 207.928 581.445 221.698 580.891 231 572.262 229.715 563.448 228.491 554.634 214.844 540.581 214.66 539.903 214.232 537.992 220.78 533 220.78 533L194.526 533" fill="#17282F" fill-rule="evenodd"/><path d="M197 546.5C197 546.224 202.149 546 208.5 546 214.851 546 220 546.224 220 546.5 220 546.776 214.851 547 208.5 547 202.149 547 197 546.776 197 546.5Z" fill="#FAFAF9" fill-rule="evenodd"/><path d="M194 548.5C194 548.224 200.044 548 207.5 548 214.956 548 221 548.224 221 548.5 221 548.776 214.956 549 207.5 549 200.044 549 194 548.776 194 548.5Z" fill="#FAFAF9" fill-rule="evenodd"/><path d="M192 551.5C192 551.224 199.163 551 208 551 216.837 551 224 551.224 224 551.5 224 551.776 216.837 552 208 552 199.163 552 192 551.776 192 551.5Z" fill="#FAFAF9" fill-rule="evenodd"/><path d="M189 554.5C189 554.224 197.283 554 207.5 554 217.717 554 226 554.224 226 554.5 226 554.776 217.717 555 207.5 555 197.283 555 189 554.776 189 554.5Z" fill="#FAFAF9" fill-rule="evenodd"/><rect x="414" y="509" width="111" height="45" fill="#FFFFFF"/><path d="M524.876 553.877C524.876 553.877 524.876 553.57 524.876 553.078 524.876 552.525 524.876 551.725 524.876 550.742 524.876 548.713 524.876 545.701 524.814 541.828 524.814 534.143 524.814 522.955 524.753 509.184L524.876 509.307C496.724 509.307 457.497 509.307 414.186 509.307L414.124 509.307 414.309 509.184C414.309 524.799 414.309 539.922 414.309 553.877L414.124 553.693C446.236 553.693 473.893 553.754 493.569 553.754 503.406 553.816 511.202 553.816 516.585 553.816 519.246 553.816 521.349 553.816 522.773 553.816 523.453 553.816 524.01 553.816 524.381 553.816 524.691 553.816 524.876 553.877 524.876 553.877 524.876 553.877 524.753 553.877 524.381 553.877 524.01 553.877 523.515 553.877 522.773 553.877 521.411 553.877 519.308 553.877 516.647 553.877 511.326 553.877 503.468 553.939 493.692 553.939 474.017 553.939 446.298 554 414.124 554L414 554 414 553.877C414 539.922 414 524.799 414 509.184L414 509 414.124 509 414.186 509C457.497 509 496.724 509 524.876 509.061L525 509.061 525 509.184C525 523.016 525 534.205 524.938 541.889 524.938 545.762 524.938 548.775 524.938 550.803 524.938 551.787 524.938 552.586 524.938 553.078 524.938 553.57 524.876 553.877 524.876 553.877" fill="#17282F" fill-rule="evenodd"/><path d="M414 515.5C414 515.224 438.624 515 469 515 499.376 515 524 515.224 524 515.5 524 515.776 499.376 516 469 516 438.624 516 414 515.776 414 515.5Z" fill="#17282F" fill-rule="evenodd"/><rect x="423" y="522" width="27" height="27" fill="#33535F"/><path d="M456 529.5C456 529.224 469.655 529 486.5 529 503.345 529 517 529.224 517 529.5 517 529.776 503.345 530 486.5 530 469.655 530 456 529.776 456 529.5Z" fill="#17282F" fill-rule="evenodd"/><path d="M456 535.5C456 535.224 469.655 535 486.5 535 503.345 535 517 535.224 517 535.5 517 535.776 503.345 536 486.5 536 469.655 536 456 535.776 456 535.5Z" fill="#17282F" fill-rule="evenodd"/><path d="M495 540.5C495 540.5 494.817 540.5 494.573 540.5 494.269 540.667 493.903 540.667 493.416 540.667 492.38 540.667 490.978 540.667 489.272 540.833 485.677 540.833 480.862 540.833 475.5 541 470.138 540.833 465.263 540.833 461.667 540.833 459.961 540.667 458.559 540.667 457.523 540.667 457.036 540.667 456.67 540.667 456.366 540.5 456.122 540.5 456 540.5 456 540.5 456 540.5 456.122 540.333 456.366 540.333 456.67 540.333 457.036 540.333 457.523 540.333 458.559 540.167 459.961 540.167 461.667 540.167 465.263 540.167 470.138 540 475.5 540 480.862 540 485.677 540.167 489.272 540.167 490.978 540.167 492.38 540.167 493.416 540.333 493.903 540.333 494.269 540.333 494.573 540.333 494.817 540.333 495 540.5 495 540.5Z" fill="#17282F" fill-rule="evenodd"/><rect x="495" y="539" width="48" height="43" fill="#F03D5F"/><rect x="495" y="539" width="48" height="43" fill="#DA314B"/><rect x="404" y="505" width="110" height="45" fill="#FFFFFF"/><path d="M513.876 549.816C513.876 549.816 513.876 549.509 513.876 549.018 513.876 548.465 513.814 547.729 513.814 546.685 513.814 544.659 513.814 541.651 513.814 537.783 513.814 530.109 513.753 518.936 513.753 505.184L513.876 505.307C485.678 505.307 446.534 505.307 403.186 505.368L403.186 505.368 403.371 505.184C403.371 520.778 403.371 535.88 403.371 549.816L403.186 549.632C435.218 549.693 462.921 549.693 482.524 549.693 492.357 549.754 500.21 549.754 505.528 549.754 508.249 549.754 510.29 549.754 511.712 549.754 512.392 549.816 512.949 549.816 513.32 549.816 513.691 549.816 513.876 549.816 513.876 549.816 513.876 549.816 513.691 549.816 513.32 549.816 512.949 549.816 512.454 549.816 511.774 549.816 510.352 549.816 508.311 549.816 505.652 549.816 500.272 549.877 492.48 549.877 482.648 549.877 462.983 549.939 435.28 549.939 403.186 550L403 550 403 549.816C403 535.88 403 520.778 403 505.184L403 505 403.186 505 403.186 505C446.534 505 485.678 505.061 513.876 505.061L514 505.061 514 505.184C513.938 518.997 513.938 530.171 513.938 537.906 513.876 541.712 513.876 544.72 513.876 546.746 513.876 547.729 513.876 548.527 513.876 549.018 513.876 549.57 513.876 549.816 513.876 549.816" fill="#17282F" fill-rule="evenodd"/><path d="M404 511.5C404 511.224 428.624 511 459 511 489.376 511 514 511.224 514 511.5 514 511.776 489.376 512 459 512 428.624 512 404 511.776 404 511.5Z" fill="#17282F" fill-rule="evenodd"/><path d="M407 508.5C407 508.224 407.224 508 407.5 508 407.776 508 408 508.224 408 508.5 408 508.776 407.776 509 407.5 509 407.224 509 407 508.776 407 508.5Z" fill="#B1BABA" fill-rule="evenodd"/><path d="M410 508.5C410 508.224 410.224 508 410.5 508 410.776 508 411 508.224 411 508.5 411 508.776 410.776 509 410.5 509 410.224 509 410 508.776 410 508.5Z" fill="#B1BABA" fill-rule="evenodd"/><path d="M412 508.5C412 508.224 412.448 508 413 508 413.552 508 414 508.224 414 508.5 414 508.776 413.552 509 413 509 412.448 509 412 508.776 412 508.5Z" fill="#B1BABA" fill-rule="evenodd"/><rect x="413" y="518" width="27" height="27" fill="#33535F"/><path d="M445 525.5C445 525.224 458.879 525 476 525 493.121 525 507 525.224 507 525.5 507 525.776 493.121 526 476 526 458.879 526 445 525.776 445 525.5Z" fill="#17282F" fill-rule="evenodd"/><path d="M445 531.5C445 531.224 458.879 531 476 531 493.121 531 507 531.224 507 531.5 507 531.776 493.121 532 476 532 458.879 532 445 531.776 445 531.5Z" fill="#17282F" fill-rule="evenodd"/><path d="M485 536.5C485 536.5 484.875 536.5 484.562 536.667 484.312 536.667 483.875 536.667 483.438 536.667 482.375 536.667 480.938 536.833 479.125 536.833 475.5 536.833 470.5 537 465 537 459.5 537 454.5 536.833 450.875 536.833 449.125 536.833 447.625 536.667 446.562 536.667 446.125 536.667 445.75 536.667 445.438 536.667 445.125 536.5 445 536.5 445 536.5 445 536.5 445.125 536.5 445.438 536.333 445.75 536.333 446.125 536.333 446.562 536.333 447.625 536.333 449.062 536.167 450.875 536.167 454.5 536.167 459.5 536 465 536 470.5 536 475.5 536.167 479.125 536.167 480.938 536.167 482.375 536.333 483.438 536.333 483.875 536.333 484.312 536.333 484.562 536.333 484.875 536.5 485 536.5 485 536.5Z" fill="#17282F" fill-rule="evenodd"/><rect x="396" y="514" width="111" height="45" fill="#FFFFFF"/><path d="M506.876 559.812C506.876 559.812 506.876 559.498 506.876 558.996 506.876 558.431 506.876 557.678 506.876 556.611 506.814 554.54 506.814 551.465 506.814 547.512 506.814 539.667 506.753 528.246 506.753 514.188L506.876 514.314C478.74 514.314 439.534 514.314 396.186 514.377L396.186 514.377 396.371 514.188C396.371 530.128 396.371 545.566 396.371 559.812L396.186 559.623C428.28 559.686 455.921 559.686 475.524 559.686 485.357 559.749 493.21 559.749 498.59 559.749 501.249 559.749 503.352 559.749 504.712 559.749 505.454 559.812 505.949 559.812 506.32 559.812 506.691 559.812 506.876 559.812 506.876 559.812 506.876 559.812 506.691 559.812 506.32 559.812 506.011 559.812 505.454 559.812 504.774 559.812 503.352 559.812 501.311 559.812 498.652 559.875 493.272 559.875 485.48 559.875 475.648 559.875 455.983 559.937 428.28 559.937 396.186 560L396 560 396 559.812C396 545.566 396 530.128 396 514.188L396 514 396.186 514 396.186 514C439.534 514 478.74 514.063 506.876 514.063L507 514.063 507 514.188C507 528.308 506.938 539.73 506.938 547.637 506.938 551.528 506.876 554.603 506.876 556.674 506.876 557.678 506.876 558.494 506.876 558.996 506.876 559.561 506.876 559.812 506.876 559.812" fill="#17282F" fill-rule="evenodd"/><path d="M396 520.5C396 520.224 420.848 520 451.5 520 482.152 520 507 520.224 507 520.5 507 520.776 482.152 521 451.5 521 420.848 521 396 520.776 396 520.5Z" fill="#17282F" fill-rule="evenodd"/><path d="M399 518C399 517.448 399.448 517 400 517 400.552 517 401 517.448 401 518 401 518.552 400.552 519 400 519 399.448 519 399 518.552 399 518Z" fill="#B1BABA" fill-rule="evenodd"/><path d="M402 518C402 517.448 402.448 517 403 517 403.552 517 404 517.448 404 518 404 518.552 403.552 519 403 519 402.448 519 402 518.552 402 518Z" fill="#B1BABA" fill-rule="evenodd"/><path d="M405 518C405 517.448 405.224 517 405.5 517 405.776 517 406 517.448 406 518 406 518.552 405.776 519 405.5 519 405.224 519 405 518.552 405 518Z" fill="#B1BABA" fill-rule="evenodd"/><rect x="405" y="528" width="27" height="27" fill="#33535F"/><path d="M438 535.5C438 535.224 451.655 535 468.5 535 485.345 535 499 535.224 499 535.5 499 535.776 485.345 536 468.5 536 451.655 536 438 535.776 438 535.5Z" fill="#17282F" fill-rule="evenodd"/><path d="M438 540.5C438 540.224 451.655 540 468.5 540 485.345 540 499 540.224 499 540.5 499 540.776 485.345 541 468.5 541 451.655 541 438 540.776 438 540.5Z" fill="#17282F" fill-rule="evenodd"/><path d="M477 546.5C477 546.5 476.878 546.5 476.634 546.667 476.33 546.667 475.964 546.667 475.477 546.667 474.441 546.667 473.039 546.833 471.272 546.833 467.737 546.833 462.862 547 457.5 547 452.138 547 447.323 546.833 443.728 546.833 442.022 546.833 440.559 546.667 439.584 546.667 439.097 546.667 438.731 546.667 438.427 546.667 438.183 546.5 438 546.5 438 546.5 438 546.5 438.183 546.5 438.427 546.333 438.731 546.333 439.097 546.333 439.584 546.333 440.559 546.333 442.022 546.167 443.728 546.167 447.323 546.167 452.138 546.167 457.5 546 462.862 546.167 467.737 546.167 471.272 546.167 473.039 546.167 474.441 546.333 475.477 546.333 475.964 546.333 476.33 546.333 476.634 546.333 476.878 546.5 477 546.5 477 546.5Z" fill="#17282F" fill-rule="evenodd"/><path d="M456.71 555.9 436.505 555.9C434.212 555.9 432.352 553.959 432.352 551.518 432.352 549.14 434.212 547.137 436.505 547.137L456.71 547.137C459.066 547.137 460.925 549.14 460.925 551.518 460.925 553.959 459.066 555.9 456.71 555.9ZM385 539 385 582 519 582 519 539 385 539Z" fill="#F03D5F" fill-rule="evenodd"/><path d="M293 482C293 478.686 295.686 476 299 476 302.314 476 305 478.686 305 482 305 485.314 302.314 488 299 488 295.686 488 293 485.314 293 482Z" fill="#F03D5F" fill-rule="evenodd"/><path d="M109 563C109 559.686 111.686 557 115 557 118.314 557 121 559.686 121 563 121 566.314 118.314 569 115 569 111.686 569 109 566.314 109 563Z" fill="#F03D5F" fill-rule="evenodd"/><path d="M411 304C411 300.686 413.686 298 417 298 420.314 298 423 300.686 423 304 423 307.314 420.314 310 417 310 413.686 310 411 307.314 411 304Z" fill="#F03D5F" fill-rule="evenodd"/><path d="M497 395C497 391.686 499.686 389 503 389 506.314 389 509 391.686 509 395 509 398.314 506.314 401 503 401 499.686 401 497 398.314 497 395Z" fill="#F03D5F" fill-rule="evenodd"/><path d="M600 204C600 200.686 602.686 198 606 198 609.314 198 612 200.686 612 204 612 207.314 609.314 210 606 210 602.686 210 600 207.314 600 204Z" fill="#F03D5F" fill-rule="evenodd"/><path d="M202 413C202 409.686 204.686 407 208 407 211.314 407 214 409.686 214 413 214 416.314 211.314 419 208 419 204.686 419 202 416.314 202 413Z" fill="#F03D5F" fill-rule="evenodd"/><path d="M606 204C606 204 605.876 204.309 605.567 204.928 605.258 205.546 604.764 206.412 604.146 207.587 602.909 209.937 601.055 213.4 598.644 217.977 593.76 227.068 586.714 240.364 577.689 257.247 559.577 291.013 533.8 339.189 503.015 396.765L502.83 397.075 502.645 396.827C476.126 368.441 446.702 336.963 415.485 303.629L415.918 303.568C401.7 325.398 386.926 348.033 371.843 371.224 346.128 410.68 321.402 448.652 298.283 484.088L298.159 484.274 297.912 484.088C265.397 458.114 235.231 433.933 208.279 412.35L208.589 412.288C180.215 458.052 156.787 495.776 140.53 521.998 132.37 535.109 126.003 545.375 121.676 552.301 119.513 555.826 117.844 558.485 116.731 560.279 115.618 562.072 115 563 115 563 115 563 115.556 562.01 116.669 560.217 117.782 558.424 119.389 555.764 121.552 552.239 125.88 545.251 132.247 534.985 140.344 521.874 156.54 495.591 179.906 457.866 208.218 412.041L208.341 411.855 208.527 412.041C235.54 433.562 265.706 457.743 298.221 483.717L297.85 483.779C320.969 448.343 345.695 410.371 371.41 370.915 386.493 347.786 401.267 325.089 415.485 303.258L415.67 303.011 415.918 303.258C447.073 336.654 476.435 368.132 502.954 396.518L502.583 396.518C533.49 339.004 559.329 290.89 577.441 257.123 586.466 240.24 593.637 226.944 598.52 217.915 600.931 213.4 602.847 209.875 604.084 207.587 604.702 206.412 605.196 205.484 605.505 204.928 605.876 204.309 606 204 606 204" fill="#F03D5F" fill-rule="evenodd"/><path d="M400 227.5C400 227.224 431.564 227 470.5 227 509.436 227 541 227.224 541 227.5 541 227.776 509.436 228 470.5 228 431.564 228 400 227.776 400 227.5Z" fill="#F03D5F" fill-rule="evenodd"/><path d="M404 224C404 223.448 404.448 223 405 223 405.552 223 406 223.448 406 224 406 224.552 405.552 225 405 225 404.448 225 404 224.552 404 224Z" fill="#F9B2C5" fill-rule="evenodd"/><path d="M407 224C407 223.448 407.448 223 408 223 408.552 223 409 223.448 409 224 409 224.552 408.552 225 408 225 407.448 225 407 224.552 407 224Z" fill="#F9B2C5" fill-rule="evenodd"/><path d="M411 224C411 223.448 411.448 223 412 223 412.552 223 413 223.448 413 224 413 224.552 412.552 225 412 225 411.448 225 411 224.552 411 224Z" fill="#F9B2C5" fill-rule="evenodd"/><rect x="412" y="237" width="34" height="34" fill="#F9B2C5"/><path d="M453 246.5C453 246.224 470.461 246 492 246 513.539 246 531 246.224 531 246.5 531 246.776 513.539 247 492 247 470.461 247 453 246.776 453 246.5Z" fill="#F03D5F" fill-rule="evenodd"/><path d="M453 253.5C453 253.224 470.461 253 492 253 513.539 253 531 253.224 531 253.5 531 253.776 513.539 254 492 254 470.461 254 453 253.776 453 253.5Z" fill="#F03D5F" fill-rule="evenodd"/><path d="M503 260.429C503 260.429 502.817 260.571 502.45 260.571 502.083 260.571 501.594 260.571 501.044 260.714 499.699 260.714 497.866 260.714 495.665 260.857 491.081 260.857 484.846 260.857 478 261 471.093 260.857 464.858 260.857 460.274 260.857 458.073 260.714 456.24 260.714 454.956 260.714 454.345 260.571 453.856 260.571 453.489 260.571 453.122 260.571 453 260.429 453 260.429 453 260.429 453.122 260.429 453.489 260.286 453.856 260.286 454.345 260.286 454.956 260.286 456.24 260.143 458.073 260.143 460.274 260.143 464.858 260 471.093 260 478 260 484.846 260 491.081 260 495.665 260.143 497.866 260.143 499.699 260.143 501.044 260.286 501.594 260.286 502.083 260.286 502.45 260.286 502.817 260.429 503 260.429 503 260.429Z" fill="#F03D5F" fill-rule="evenodd"/><path d="M479.783 277.75C479.783 277.75 479.535 277.75 478.976 277.75 478.417 277.75 477.672 277.75 476.616 277.75 474.443 277.75 471.338 277.75 467.302 277.688 459.168 277.625 447.308 277.5 432.406 277.312L432.53 277.25C427.501 282.188 421.726 287.688 415.579 293.688L415.206 294 415.206 293.5C415.206 288.625 415.206 283.312 415.206 277.875L415.455 278.062C410.425 278.062 405.023 278.062 399.497 278.062L399.373 278.062 399.31 278 399.124 277.812 399 277.75 399 277.625C399 259.938 399 240.188 399 219.312L399 219 399.248 219C415.33 219 432.406 219 449.978 219.062 482.95 219.062 514.12 219.062 541.814 219.125L542 219.125 542 219.375C541.938 241.188 541.876 260.812 541.814 277.625L541.814 277.812 541.627 277.812C522.565 277.812 507.104 277.875 496.362 277.875 491.084 277.812 486.924 277.812 484.067 277.812 482.701 277.812 481.646 277.812 480.901 277.812 480.155 277.812 479.783 277.75 479.783 277.75 479.783 277.75 480.155 277.75 480.901 277.75 481.646 277.75 482.701 277.75 484.067 277.688 486.924 277.688 491.084 277.688 496.362 277.625 507.104 277.625 522.503 277.5 541.627 277.438L541.441 277.625C541.441 260.812 541.503 241.188 541.565 219.375L541.752 219.625C514.12 219.562 482.95 219.562 449.978 219.562 432.406 219.562 415.33 219.562 399.248 219.562L399.497 219.312C399.497 240.188 399.497 259.938 399.497 277.625L399.435 277.438 399.621 277.688 399.497 277.625C405.023 277.625 410.425 277.625 415.455 277.625L415.641 277.625 415.641 277.875C415.641 283.312 415.641 288.625 415.641 293.5L415.268 293.375C421.478 287.438 427.252 281.875 432.282 277L432.344 277 432.406 277C447.308 277.188 459.168 277.375 467.302 277.5 471.338 277.562 474.443 277.625 476.616 277.688 477.672 277.688 478.417 277.688 478.976 277.75 479.535 277.75 479.783 277.75 479.783 277.75" fill="#F03D5F" fill-rule="evenodd"/><text font-family="Montserrat,Montserrat_MSFontService,sans-serif" font-weight="400" font-size="24" transform="translate(841.783 324)">Countless Benefits !</text></g></svg>